<?xml version="1.0" encoding="UTF-8" standalone="no"?>
<svg
   viewBox="0 0 640 640"
   version="1.1"
   id="svg1"
   sodipodi:docname="computer-mouse-right.svg"
   inkscape:version="1.4.2 (f4327f4, 2025-05-13)"
   xmlns:inkscape="http://www.inkscape.org/namespaces/inkscape"
   xmlns:sodipodi="http://sodipodi.sourceforge.net/DTD/sodipodi-0.dtd"
   xmlns="http://www.w3.org/2000/svg"
   xmlns:svg="http://www.w3.org/2000/svg">
  <defs
     id="defs1" />
  <sodipodi:namedview
     id="namedview1"
     pagecolor="#ffffff"
     bordercolor="#000000"
     borderopacity="0.25"
     inkscape:showpageshadow="2"
     inkscape:pageopacity="0.0"
     inkscape:pagecheckerboard="0"
     inkscape:deskcolor="#d1d1d1"
     showgrid="false"
     inkscape:zoom="1.2734375"
     inkscape:cx="320.78528"
     inkscape:cy="320"
     inkscape:window-width="1920"
     inkscape:window-height="1017"
     inkscape:window-x="-8"
     inkscape:window-y="-8"
     inkscape:window-maximized="1"
     inkscape:current-layer="svg1" />
  <!--!Font Awesome Free 7.1.0 by @fontawesome - https://fontawesome.com License - https://fontawesome.com/license/free Copyright 2025 Fonticons, Inc.-->
  <path
     d="M128 256L296 256L296 64L288 64C199.6 64 128 135.6 128 224L128 256zM128 304L128 416C128 504.4 199.6 576 288 576L352 576C440.4 576 512 504.4 512 416L512 304L128 304zM512 256L512 224C512 135.6 440.4 64 352 64L344 64L344 256L512 256z"
     id="path1" />
  <path
     style="fill:#d37f85;fill-opacity:1;stroke-width:0.785276"
     d="M 344.34356,159.7521 V 63.896834 l 10.40491,0.489148 c 26.93894,1.266433 47.68565,6.457226 69.122,17.294216 47.83322,24.181732 80.42222,70.888572 86.55913,124.057322 0.7464,6.46657 1.17776,17.46778 1.17776,30.03681 v 19.83303 h -83.6319 -83.6319 z"
     id="path2" />
  <path
     style="fill:#d37f85;fill-opacity:1;stroke-width:0.785276"
     d="M 344.34356,159.7944 V 63.98144 l 2.94478,0.371189 c 1.61964,0.204155 6.83191,0.573549 11.58283,0.820876 41.03463,2.136212 77.32575,18.256269 106.01227,47.089315 24.85109,24.97804 41.30051,59.24492 45.06221,93.87215 0.44573,4.10307 1.04533,16.91288 1.33242,28.46626 l 0.522,21.00613 h -83.72826 -83.72825 z"
     id="path3" />
  <path
     style="fill:#ffffff;stroke-width:0.785276"
     d="m 128.39359,235.77914 c 0.001,-23.41591 1.29299,-36.42823 5.08531,-51.22174 14.46266,-56.41766 59.02112,-100.982066 115.05552,-115.070864 11.13671,-2.800118 23.08259,-4.459579 36.71711,-5.100554 l 10.40491,-0.489148 v 95.855266 95.85526 h -83.6319 -83.6319 z"
     id="path4" />
  <path
     style="fill:#ffffff;stroke-width:0.785276"
     d="m 277.98773,575.2259 c -69.68114,-4.6814 -128.01085,-53.41303 -144.80841,-120.98036 -4.47395,-17.99627 -4.78668,-23.88076 -4.78668,-90.06895 V 304.29448 H 320 511.60736 v 59.71193 c 0,68.04335 -0.42682,74.9639 -5.81853,94.34181 -15.51886,55.77509 -59.42587,98.45021 -115.78237,112.53388 -16.40886,4.10063 -21.28931,4.46512 -63.33161,4.72975 -21.5951,0.13592 -43.5043,-0.0377 -48.68712,-0.38595 z"
     id="path5" />
</svg>
